<mxfile host="app.diagrams.net" agent="Mozilla/5.0 (Windows NT 10.0; Win64; x64) AppleWebKit/537.36 (KHTML, like Gecko) Chrome/141.0.0.0 Safari/537.36 Edg/141.0.0.0" version="28.2.5">
  <diagram name="Trang-1" id="PsLvbpXogJpLWfmkFbIV">
    <mxGraphModel dx="1273" dy="570" grid="1" gridSize="10" guides="1" tooltips="1" connect="1" arrows="1" fold="1" page="1" pageScale="1" pageWidth="3300" pageHeight="4681" math="0" shadow="0">
      <root>
        <mxCell id="0" />
        <mxCell id="1" parent="0" />
        <mxCell id="5FQt6qHdHhDhg6Qdac8G-12" value="" style="edgeStyle=orthogonalEdgeStyle;rounded=0;orthogonalLoop=1;jettySize=auto;html=1;" edge="1" parent="1" source="5FQt6qHdHhDhg6Qdac8G-1" target="5FQt6qHdHhDhg6Qdac8G-2">
          <mxGeometry relative="1" as="geometry" />
        </mxCell>
        <mxCell id="5FQt6qHdHhDhg6Qdac8G-1" value="Start" style="strokeWidth=2;html=1;shape=mxgraph.flowchart.start_1;whiteSpace=wrap;" vertex="1" parent="1">
          <mxGeometry x="460" y="110" width="100" height="60" as="geometry" />
        </mxCell>
        <mxCell id="5FQt6qHdHhDhg6Qdac8G-4" value="" style="edgeStyle=orthogonalEdgeStyle;rounded=0;orthogonalLoop=1;jettySize=auto;html=1;" edge="1" parent="1" source="5FQt6qHdHhDhg6Qdac8G-2" target="5FQt6qHdHhDhg6Qdac8G-3">
          <mxGeometry relative="1" as="geometry" />
        </mxCell>
        <mxCell id="5FQt6qHdHhDhg6Qdac8G-2" value="Input n" style="shape=parallelogram;html=1;strokeWidth=2;perimeter=parallelogramPerimeter;whiteSpace=wrap;rounded=1;arcSize=12;size=0.23;" vertex="1" parent="1">
          <mxGeometry x="440" y="220" width="140" height="60" as="geometry" />
        </mxCell>
        <mxCell id="5FQt6qHdHhDhg6Qdac8G-6" value="" style="edgeStyle=orthogonalEdgeStyle;rounded=0;orthogonalLoop=1;jettySize=auto;html=1;" edge="1" parent="1" source="5FQt6qHdHhDhg6Qdac8G-3" target="5FQt6qHdHhDhg6Qdac8G-5">
          <mxGeometry relative="1" as="geometry" />
        </mxCell>
        <mxCell id="5FQt6qHdHhDhg6Qdac8G-8" value="" style="edgeStyle=orthogonalEdgeStyle;rounded=0;orthogonalLoop=1;jettySize=auto;html=1;" edge="1" parent="1" source="5FQt6qHdHhDhg6Qdac8G-3" target="5FQt6qHdHhDhg6Qdac8G-7">
          <mxGeometry relative="1" as="geometry" />
        </mxCell>
        <mxCell id="5FQt6qHdHhDhg6Qdac8G-3" value="&#xa;&lt;span style=&quot;color: rgb(0, 0, 0); font-family: Arial, sans-serif; font-size: 16px; font-style: normal; font-variant-ligatures: normal; font-variant-caps: normal; font-weight: 400; letter-spacing: normal; orphans: 2; text-align: start; text-indent: 0px; text-transform: none; widows: 2; word-spacing: 0px; -webkit-text-stroke-width: 0px; white-space: pre-wrap; background-color: rgb(255, 255, 255); text-decoration-thickness: initial; text-decoration-style: initial; text-decoration-color: initial; display: inline !important; float: none;&quot;&gt;n % 2 = 0&lt;/span&gt;&#xa;&#xa;" style="rhombus;whiteSpace=wrap;html=1;strokeWidth=2;rounded=1;arcSize=12;" vertex="1" parent="1">
          <mxGeometry x="430" y="350" width="160" height="80" as="geometry" />
        </mxCell>
        <mxCell id="5FQt6qHdHhDhg6Qdac8G-5" value="Chẵn" style="shape=parallelogram;html=1;strokeWidth=2;perimeter=parallelogramPerimeter;whiteSpace=wrap;rounded=1;arcSize=12;size=0.23;" vertex="1" parent="1">
          <mxGeometry x="200" y="360" width="140" height="60" as="geometry" />
        </mxCell>
        <mxCell id="5FQt6qHdHhDhg6Qdac8G-7" value="Lẻ" style="shape=parallelogram;html=1;strokeWidth=2;perimeter=parallelogramPerimeter;whiteSpace=wrap;rounded=1;arcSize=12;size=0.23;" vertex="1" parent="1">
          <mxGeometry x="700" y="360" width="160" height="60" as="geometry" />
        </mxCell>
        <mxCell id="5FQt6qHdHhDhg6Qdac8G-9" value="End" style="strokeWidth=2;html=1;shape=mxgraph.flowchart.start_1;whiteSpace=wrap;" vertex="1" parent="1">
          <mxGeometry x="460" y="500" width="100" height="60" as="geometry" />
        </mxCell>
        <mxCell id="5FQt6qHdHhDhg6Qdac8G-10" style="edgeStyle=orthogonalEdgeStyle;rounded=0;orthogonalLoop=1;jettySize=auto;html=1;entryX=1;entryY=0.5;entryDx=0;entryDy=0;entryPerimeter=0;exitX=0.5;exitY=1;exitDx=0;exitDy=0;" edge="1" parent="1" source="5FQt6qHdHhDhg6Qdac8G-7" target="5FQt6qHdHhDhg6Qdac8G-9">
          <mxGeometry relative="1" as="geometry">
            <Array as="points">
              <mxPoint x="780" y="530" />
            </Array>
          </mxGeometry>
        </mxCell>
        <mxCell id="5FQt6qHdHhDhg6Qdac8G-11" style="edgeStyle=orthogonalEdgeStyle;rounded=0;orthogonalLoop=1;jettySize=auto;html=1;entryX=0;entryY=0.5;entryDx=0;entryDy=0;entryPerimeter=0;exitX=0.41;exitY=1.067;exitDx=0;exitDy=0;exitPerimeter=0;" edge="1" parent="1" source="5FQt6qHdHhDhg6Qdac8G-5" target="5FQt6qHdHhDhg6Qdac8G-9">
          <mxGeometry relative="1" as="geometry">
            <mxPoint x="249" y="391" as="sourcePoint" />
            <Array as="points">
              <mxPoint x="257" y="421" />
              <mxPoint x="260" y="421" />
              <mxPoint x="260" y="530" />
            </Array>
          </mxGeometry>
        </mxCell>
        <mxCell id="5FQt6qHdHhDhg6Qdac8G-13" value="True" style="text;html=1;align=center;verticalAlign=middle;whiteSpace=wrap;rounded=0;" vertex="1" parent="1">
          <mxGeometry x="360" y="360" width="60" height="30" as="geometry" />
        </mxCell>
        <mxCell id="5FQt6qHdHhDhg6Qdac8G-14" value="Flase" style="text;html=1;align=center;verticalAlign=middle;whiteSpace=wrap;rounded=0;" vertex="1" parent="1">
          <mxGeometry x="620" y="360" width="60" height="30" as="geometry" />
        </mxCell>
      </root>
    </mxGraphModel>
  </diagram>
</mxfile>
